<?xml version="1.0" standalone="no"?>
<!DOCTYPE svg PUBLIC "-//W3C//DTD SVG 20010904//EN"
 "http://www.w3.org/TR/2001/REC-SVG-20010904/DTD/svg10.dtd">
<svg version="1.0" xmlns="http://www.w3.org/2000/svg"
 width="1024.000000pt" height="1024.000000pt" viewBox="0 0 1024.000000 1024.000000"
 preserveAspectRatio="xMidYMid meet">
<metadata>
Created by potrace 1.14, written by Peter Selinger 2001-2017
</metadata>
<g transform="translate(0.000000,1024.000000) scale(0.100000,-0.100000)"
fill="#000000" stroke="none">
<path d="M1849 10236 c-2 -2 -33 -6 -69 -9 -154 -13 -421 -83 -570 -149 -73
-32 -203 -99 -232 -119 -14 -11 -29 -19 -32 -19 -9 0 -205 -144 -246 -180
-220 -194 -386 -413 -507 -667 -45 -94 -116 -283 -128 -342 -2 -9 -10 -48 -19
-87 -8 -38 -18 -92 -22 -120 -3 -27 -9 -58 -12 -69 -4 -11 -8 -1507 -9 -3325
-2 -3192 -1 -3309 17 -3425 36 -229 64 -330 146 -520 60 -142 194 -366 261
-440 10 -11 29 -33 41 -50 47 -61 197 -208 283 -278 77 -63 251 -173 352 -223
142 -70 266 -116 413 -153 125 -31 155 -37 269 -49 39 -4 1555 -7 3370 -7
3522 0 3289 -3 3510 40 52 10 107 26 211 60 702 232 1231 858 1339 1585 3 19
9 64 14 100 11 75 10 6661 -1 6700 -4 14 -12 55 -18 92 -39 251 -156 542 -308
769 -237 352 -568 615 -963 762 -131 49 -250 80 -444 114 -40 7 -6638 16
-6646 9z"/>
</g>
</svg>
